<svg enable-background="new 0 0 369.157 333.567" viewBox="0 0 369.157 333.567" xmlns="http://www.w3.org/2000/svg"><g stroke="#000" stroke-miterlimit="10"><path d="m181.192 33.161h6.777v267.144h-6.777z" fill="#fff" transform="matrix(.866 -.5 .5 .866 -58.6372 114.6282)"/><path d="m51 163.344h267.161v6.777h-267.161z" fill="#fff"/><path d="m51 163.344h267.161v6.777h-267.161z" fill="#fff" transform="matrix(.5 -.866 .866 .5 -52.1046 243.2177)"/><path d="m227.78 173.736-36.195 36.195c-3.869 3.869-10.141 3.869-14.009 0l-36.195-36.195c-3.869-3.869-3.869-10.141 0-14.009l36.195-36.195c3.869-3.869 10.141-3.869 14.009 0l36.195 36.195c3.869 3.869 3.869 10.141-0 14.009z" fill="#fff"/><path d="m166.403 188.733 18.177-51 18.178 51z" fill="#ff442b"/></g><ellipse cx="251.394" cy="51.026" fill="#4ec3e8" opacity=".8" rx="50.993" ry="51.004" transform="matrix(.7091 -.7051 .7051 .7091 37.1586 192.1135)"/><path d="m259.33 43.098c-4.374-4.384-11.473-4.393-15.858-.019-4.384 4.374-4.393 11.473-.019 15.858 4.365 4.375 11.447 4.394 15.835.042 4.397-4.335 4.446-11.414.111-15.811-.023-.024-.046-.047-.069-.07z" fill="#fff" stroke="#000" stroke-miterlimit="10"/><ellipse cx="51.002" cy="166.743" fill="#4ec3e8" opacity=".8" rx="50.993" ry="51.004" transform="matrix(.7091 -.7051 .7051 .7091 -102.7393 84.4749)"/><path d="m43.06 174.65c4.374 4.384 11.473 4.393 15.858.019 4.384-4.374 4.393-11.473.019-15.858-4.365-4.375-11.447-4.394-15.835-.042-4.397 4.335-4.446 11.414-.111 15.811.023.024.046.047.069.07z" fill="#fff" stroke="#000" stroke-miterlimit="10"/><ellipse cx="117.759" cy="50.989" fill="#159e1f" opacity=".8" rx="50.993" ry="51.004" transform="matrix(.7051 -.7091 .7091 .7051 -1.4326 98.5333)"/><path d="m125.679 43.06c4.384 4.374 4.393 11.473.019 15.858-4.374 4.384-11.473 4.393-15.858.019-4.375-4.365-4.394-11.447-.042-15.835 4.335-4.397 11.414-4.446 15.811-.111.024.023.047.046.07.069z" fill="#fff" stroke="#000" stroke-miterlimit="10"/><ellipse cx="251.456" cy="282.556" fill="#4ec3e8" opacity=".8" rx="50.993" ry="51.004" transform="matrix(.7051 -.7091 .7091 .7051 -126.2072 261.6126)"/><path d="m243.54 290.508c-4.384-4.374-4.393-11.473-.02-15.858 4.374-4.384 11.473-4.393 15.857-.02 4.376 4.365 4.395 11.447.042 15.835-4.335 4.397-11.414 4.446-15.811.111-.022-.022-.045-.045-.068-.068z" fill="#fff" stroke="#000" stroke-miterlimit="10"/><ellipse cx="318.157" cy="166.721" fill="#159e1f" opacity=".8" rx="50.993" ry="51.004" transform="matrix(.7051 -.7091 .7091 .7051 -24.4052 274.7533)"/><path d="m326.078 158.793c4.384 4.374 4.393 11.473.02 15.858-4.374 4.384-11.473 4.393-15.857.02-4.376-4.365-4.395-11.447-.042-15.835 4.335-4.397 11.414-4.446 15.811-.111.022.022.045.045.068.068z" fill="#fff" stroke="#000" stroke-miterlimit="10"/><ellipse cx="117.759" cy="282.454" fill="#159e1f" opacity=".8" rx="50.993" ry="51.004" transform="matrix(.7051 -.7091 .7091 .7051 -165.5563 166.7827)"/><path d="m125.68 274.525c4.384 4.374 4.393 11.473.019 15.858-4.374 4.384-11.473 4.393-15.858.019-4.375-4.365-4.394-11.447-.042-15.835 4.335-4.397 11.414-4.446 15.811-.111.024.023.047.046.07.069z" fill="#fff" stroke="#000" stroke-miterlimit="10"/><path d="m155.76393 69.460607c7.20007-7.642838 8.44151-12.48612 9.7217-18.999748l-12.18689-.125c2.57083 4.089977 3.31842 10.989681 2.46519 19.124748z" fill="#fff" fill-rule="evenodd"/><path d="m223.94673 38.425681c-3.13084 3.863564-7.10954 7.019918-11.58403 9.189766" fill="none" stroke="#ffffec" stroke-width="2.513386" transform="matrix(.43606293 -.89991617 .89991617 .43606293 24.073468 220.81091)"/><path d="m79.581848 32.141251c-7.20007 7.642839-8.44151 12.486121-9.7217 18.99975l12.18689.125c-2.57083-4.089977-3.31842-10.989682-2.46519-19.12475z" fill="#fff" fill-rule="evenodd"/><path d="m223.94673 38.425681c-3.13084 3.863564-7.10954 7.019918-11.58403 9.189766" fill="none" stroke="#ffffec" stroke-width="2.513386" transform="matrix(-.43606294 .89991617 -.89991617 -.43606294 211.272354 -119.209062)"/><path d="m119.01674 9.6404316q-3.8 0-4.4 3.6666674-.0667.633333-.1 1.4h-2.93333q.13333-7.0000008 6.33333-7.6000009.53333-.033333 1.06667-.033333 4.66666 0 6.4 3.1333332.8 1.466667.8 3.366667-.0333 3.600001-3.3 4.900001 3.1 1.066666 3.76666 3.6.23334.9.23334 2.033333 0 4.100001-3.13334 6.100001-2.03333 1.266667-4.86666 1.266667-6.53334 0-7.63334-6.133334-.1-.733334-.16666-1.5h2.93333q.26667 4.4 3.76667 4.933333.56666.1 1.2.1 3.46666 0 4.53333-2.633333.36667-.966667.36667-2.1-.0667-4.266667-4.9-4.300001l-1.23334.03333h-.36666v-2.5q3.76666-.06667 4.9-1.100001.9-.866666.9-2.6 0-2.833333-2.33334-3.7333333-.83333-.3000001-1.83333-.3000001z" fill="#fff"/><path d="m155.76393 69.460607c7.20007-7.642838 8.44151-12.48612 9.7217-18.999748l-12.18689-.125c2.57083 4.089977 3.31842 10.989681 2.46519 19.124748z" fill="#fff" fill-rule="evenodd"/><path d="m223.94673 38.425681c-3.13084 3.863564-7.10954 7.019918-11.58403 9.189766" fill="none" stroke="#ffffec" stroke-width="2.513386" transform="matrix(.43606293 -.89991617 .89991617 .43606293 24.073468 220.81091)"/><path d="m79.581848 32.141251c-7.20007 7.642839-8.44151 12.486121-9.7217 18.99975l12.18689.125c-2.57083-4.089977-3.31842-10.989682-2.46519-19.12475z" fill="#fff" fill-rule="evenodd"/><path d="m223.94673 38.425681c-3.13084 3.863564-7.10954 7.019918-11.58403 9.189766" fill="none" stroke="#ffffec" stroke-width="2.513386" transform="matrix(-.43606294 .89991617 -.89991617 -.43606294 211.272354 -119.209062)"/><path d="m155.41869 301.08644c7.20007-7.64284 8.44151-12.48612 9.7217-18.99975l-12.18689-.125c2.57083 4.08998 3.31842 10.98968 2.46519 19.12475z" fill="#fff" fill-rule="evenodd"/><path d="m223.94673 38.425681c-3.13084 3.863564-7.10954 7.019918-11.58403 9.189766" fill="none" stroke="#ffffec" stroke-width="2.513386" transform="matrix(.43606293 -.89991617 .89991617 .43606293 23.728213 452.436748)"/><path d="m79.236589 263.76708c-7.20007 7.64284-8.44151 12.48612-9.7217 18.99975l12.18689.125c-2.57083-4.08998-3.31842-10.98968-2.46519-19.12475z" fill="#fff" fill-rule="evenodd"/><path d="m223.94673 38.425681c-3.13084 3.863564-7.10954 7.019918-11.58403 9.189766" fill="none" stroke="#ffffec" stroke-width="2.513386" transform="matrix(-.43606294 .89991617 -.89991617 -.43606294 210.927088 112.416745)"/><path d="m110.66772 315.82037q0-10.3 5.7-12.4 1.3-.46667 2.76666-.46667 3.83334 0 5.66667 3.1.76667 1.33333 1.03333 3.06667h-2.93333q-.6-2.93334-3.03333-3.46667-.46667-.1-.93334-.1-3.7 0-4.83333 4.8-.4 1.83334-.43333 4.16667 1.96666-2.63333 5.43333-2.63333 3.7 0 5.76667 2.76666 1.46666 2 1.46666 4.73334 0 3.96666-2.73333 6.23333-2.1 1.73333-5 1.73333-7.9-.0667-7.93333-11.53333zm8.06666-1.33333q-2.83333 0-4.16666 2.2-.73334 1.2-.73334 2.76666 0 2.86667 2.03334 4.4 1.2.9 2.76666.9 2.53334 0 3.86667-2.1.83333-1.33333.83333-3.03333 0-3.4-2.36666-4.63333-1-.5-2.23334-.5z" fill="#fff"/><path d="m212.07911 69.841228c-7.20006-7.642839-8.4415-12.486119-9.72169-18.999749l12.18688-.125c-2.57083 4.08998-3.31842 10.98968-2.46519 19.124749z" fill="#fff" fill-rule="evenodd"/><path d="m223.94673 38.425681c-3.13084 3.863564-7.10954 7.019918-11.58403 9.189766" fill="none" stroke="#ffffec" stroke-width="2.513386" transform="matrix(-.43606293 -.89991617 -.89991617 .43606293 343.76961 221.19153)"/><path d="m288.26121 32.521868c7.20007 7.64284 8.44151 12.48613 9.7217 18.999751l-12.18689.125c2.57083-4.08997 3.31842-10.989681 2.46519-19.124751z" fill="#fff" fill-rule="evenodd"/><path d="m223.94673 38.425681c-3.13084 3.863564-7.10954 7.019918-11.58403 9.189766" fill="none" stroke="#ffffec" stroke-width="2.513386" transform="matrix(.43606294 .89991617 .89991617 -.43606294 156.57073 -118.82844)"/><path d="m258.60742 6.5738354v2.9000002h-9.83333l-.93334 6.6000004q2-1.433333 4.36667-1.433333 4 0 6.13333 2.9 1.5 2.066667 1.5 4.966667 0 4.3-2.9 6.7-2.16666 1.766667-5.2 1.766667-6.53333 0-7.76666-6.266667-.0333-.1-.0667-.3h2.93333q1.1 3.933334 4.83334 3.966667 3.36666 0 4.63333-2.7.53333-1.233334.53333-2.766667 0-3.633334-2.53333-5.033334-1.16667-.633333-2.63333-.633333-2.13334 0-3.63334 1.433333-.33333.366667-.7.766667h-2.7l1.76667-12.8666676z" fill="#fff"/><path d="m212.05266 300.95149c-7.20007-7.64284-8.44151-12.48612-9.7217-18.99975l12.18689-.125c-2.57083 4.08998-3.31842 10.98968-2.46519 19.12475z" fill="#fff" fill-rule="evenodd"/><path d="m223.94673 38.425681c-3.13084 3.863564-7.10954 7.019918-11.58403 9.189766" fill="none" stroke="#ffffec" stroke-width="2.513386" transform="matrix(-.43606293 -.89991617 -.89991617 .43606293 343.74313 452.3018)"/><path d="m288.23474 263.63213c7.20007 7.64284 8.44151 12.48613 9.7217 18.99975l-12.18689.125c2.57083-4.08997 3.31842-10.98968 2.46519-19.12475z" fill="#fff" fill-rule="evenodd"/><path d="m223.94673 38.425681c-3.13084 3.863564-7.10954 7.019918-11.58403 9.189766" fill="none" stroke="#ffffec" stroke-width="2.513386" transform="matrix(.43606294 .89991617 .89991617 -.43606294 156.54428 112.28185)"/><path d="m253.44497 321.27535h-9.96667v-3.1l10.73334-14.86667h2.16666v15.33334h3.5v2.63333h-3.5v5.66667h-2.93333zm0-2.63333v-10.33334l-7.4 10.33334z" fill="#fff"/><path d="m29.916144 128.54948c7.64284-7.20007 12.48612-8.44151 18.99975-9.7217l.125 12.18689c-4.08998-2.57083-10.98968-3.31842-19.12475-2.46519z" fill="#fff" fill-rule="evenodd"/><path d="m223.94673 38.425681c-3.13084 3.863564-7.10954 7.019918-11.58403 9.189766" fill="none" stroke="#ffffec" stroke-width="2.513386" transform="matrix(.89991617 -.43606293 -.43606293 -.89991617 -121.43416 260.23996)"/><path d="m67.235504 204.73157c-7.64284 7.20007-12.48613 8.44151-18.99975 9.7217l-.125-12.18689c4.08997 2.57083 10.98968 3.31842 19.12475 2.46519z" fill="#fff" fill-rule="evenodd"/><path d="m223.94673 38.425681c-3.13084 3.863564-7.10954 7.019918-11.58403 9.189766" fill="none" stroke="#ffffec" stroke-width="2.513386" transform="matrix(-.89991617 .43606294 .43606294 .89991617 218.5858 73.0411)"/><path d="m335.61051 128.42448c-7.64284-7.20007-12.48612-8.44151-18.99975-9.7217l-.125 12.18689c4.08998-2.57083 10.98968-3.31842 19.12475-2.46519z" fill="#fff" fill-rule="evenodd"/><path d="m223.94673 38.425681c-3.13084 3.863564-7.10954 7.019918-11.58403 9.189766" fill="none" stroke="#ffffec" stroke-width="2.513386" transform="matrix(-.89991617 -.43606294 .43606294 -.89991617 486.96081 260.114963)"/><path d="m298.29115 204.60657c7.64284 7.20007 12.48613 8.44151 18.99975 9.7217l.125-12.18689c-4.08997 2.57083-10.98968 3.31842-19.12475 2.46519z" fill="#fff" fill-rule="evenodd"/><path d="m223.94673 38.425681c-3.13084 3.863564-7.10954 7.019918-11.58403 9.189766" fill="none" stroke="#ffffec" stroke-width="2.513386" transform="matrix(.89991617 .43606294 -.43606294 .89991617 146.940862 72.916101)"/><path d="m349.12903 161.54966h-5.23333v-2.1q3.4-.43333 4.4-1.2 1-.73333 1.7-3.1.0667-.2.13333-.4h1.93333v23.63334h-2.93333z" fill="#fff"/><path d="m13.412346 163.07466q.266666-8.16667 7.8-8.2 4.033334 0 6.166667 2.66667 1.400001 1.83333 1.400001 4.26666-.03333 4.4-5.000001 7.13334l-3.333333 1.8q-3.100001 1.66667-3.900001 3.53333-.266666.6-.366666 1.33334h12.433334v2.9h-15.733335q.233334-4.26667 1.9-6.5 1.433334-1.86667 4.733334-3.73334l3.066667-1.73333q3.166667-1.86667 3.2-4.66667 0-2.4-2-3.7-1.166667-.73333-2.666667-.73333-4.366667 0-4.766667 5.43333 0 .1 0 .2z" fill="#fff"/></svg>