<svg enable-background="new 0 0 386.761 385.608" viewBox="0 0 386.761 385.608" xmlns="http://www.w3.org/2000/svg"><g stroke="#000" stroke-miterlimit="10"><path d="m189.992 39.232h6.777v307.144h-6.777z" fill="#fff" transform="matrix(.9239 -.3827 .3827 .9239 -59.0628 88.6798)"/><path d="m39.8 189.416h307.161v6.777h-307.161z" fill="#fff" transform="matrix(.9239 -.3827 .3827 .9239 -59.0628 88.6798)"/><path d="m39.808 189.415h307.144v6.777h-307.144z" fill="#fff" transform="matrix(.3827 -.9239 .9239 .3827 -58.7511 297.6806)"/><path d="m189.992 39.224h6.777v307.161h-6.777z" fill="#fff" transform="matrix(.3827 -.9239 .9239 .3827 -58.7513 297.6817)"/><path d="m236.581 199.808-36.195 36.195c-3.869 3.869-10.141 3.869-14.009 0l-36.195-36.195c-3.869-3.869-3.869-10.141 0-14.009l36.195-36.195c3.869-3.869 10.141-3.869 14.009 0l36.195 36.195c3.868 3.869 3.868 10.141-0 14.009z" fill="#fff"/><path d="m175.203 214.804 18.177-51 18.178 51z" fill="#ff442b"/></g><ellipse cx="335.757" cy="251.788" fill="#159e1f" opacity=".8" rx="50.993" ry="51.004" transform="matrix(.7091 -.7051 .7051 .7091 -79.863 310.0096)"/><path d="m343.7 243.863c-4.374-4.384-11.473-4.393-15.858-.019-4.384 4.374-4.393 11.473-.019 15.858 4.365 4.375 11.447 4.394 15.835.042 4.397-4.335 4.446-11.414.111-15.811-.023-.024-.046-.047-.069-.07z" fill="#fff" stroke="#000" stroke-miterlimit="10"/><ellipse cx="50.995" cy="133.835" fill="#159e1f" opacity=".8" rx="50.993" ry="51.004" transform="matrix(.7091 -.7051 .7051 .7091 -79.5361 74.8961)"/><path d="m43.06 141.746c4.374 4.384 11.473 4.393 15.858.019 4.384-4.374 4.393-11.473.019-15.858-4.365-4.375-11.447-4.394-15.835-.042-4.397 4.335-4.446 11.414-.111 15.811.023.024.046.047.069.07z" fill="#fff" stroke="#000" stroke-miterlimit="10"/><ellipse cx="252.121" cy="50.992" fill="#159e1f" opacity=".8" rx="50.993" ry="51.004" transform="matrix(.7051 -.7091 .7091 .7051 38.1833 193.8062)"/><path d="m260.035 43.06c4.384 4.374 4.393 11.473.019 15.858-4.374 4.384-11.473 4.393-15.858.019-4.376-4.365-4.394-11.447-.042-15.835 4.335-4.397 11.414-4.446 15.811-.111.024.023.047.046.07.069z" fill="#fff" stroke="#000" stroke-miterlimit="10"/><ellipse cx="134.648" cy="334.601" fill="#159e1f" opacity=".8" rx="50.993" ry="51.004" transform="matrix(.7051 -.7091 .7091 .7051 -197.5522 194.1346)"/><path d="m126.726 342.549c-4.384-4.374-4.393-11.473-.019-15.858 4.374-4.384 11.473-4.393 15.858-.019 4.376 4.365 4.394 11.447.042 15.835-4.335 4.397-11.414 4.446-15.811.111-.024-.023-.047-.046-.07-.069z" fill="#fff" stroke="#000" stroke-miterlimit="10"/><ellipse cx="335.506" cy="133.939" fill="#4ec3e8" opacity=".8" rx="50.993" ry="51.004" transform="matrix(.7091 -.7051 .7051 .7091 3.1639 275.5469)"/><path d="m343.451 126.015c-4.374-4.384-11.473-4.393-15.858-.019-4.384 4.374-4.393 11.473-.019 15.858 4.365 4.375 11.447 4.394 15.835.042 4.397-4.335 4.446-11.414.111-15.811-.023-.024-.046-.047-.069-.07z" fill="#fff" stroke="#000" stroke-miterlimit="10"/><ellipse cx="134.639" cy="51.006" fill="#4ec3e8" opacity=".8" rx="50.993" ry="51.004" transform="matrix(.7091 -.7051 .7051 .7091 3.2043 109.7788)"/><path d="m142.584 43.083c-4.374-4.384-11.473-4.393-15.858-.019-4.384 4.374-4.393 11.473-.019 15.858 4.365 4.375 11.447 4.394 15.835.042 4.397-4.335 4.446-11.414.111-15.811-.023-.024-.046-.047-.069-.07z" fill="#fff" stroke="#000" stroke-miterlimit="10"/><ellipse cx="252.113" cy="334.616" fill="#4ec3e8" opacity=".8" rx="50.993" ry="51.004" transform="matrix(.7091 -.7051 .7051 .7091 -162.6039 275.1265)"/><path d="m260.058 326.691c-4.374-4.384-11.473-4.393-15.858-.019-4.384 4.374-4.393 11.473-.019 15.858 4.365 4.375 11.447 4.394 15.835.042 4.397-4.335 4.446-11.414.111-15.811-.023-.024-.046-.047-.069-.07z" fill="#fff" stroke="#000" stroke-miterlimit="10"/><ellipse cx="50.995" cy="251.788" fill="#4ec3e8" opacity=".8" rx="50.993" ry="51.004" transform="matrix(.7091 -.7051 .7051 .7091 -162.7096 109.2125)"/><path d="m58.94 243.863c-4.374-4.384-11.473-4.393-15.858-.019-4.384 4.374-4.393 11.473-.019 15.858 4.365 4.375 11.447 4.394 15.835.042 4.397-4.335 4.446-11.414.111-15.811-.023-.024-.046-.047-.069-.07z" fill="#fff" stroke="#000" stroke-miterlimit="10"/><path d="m88.759084 152.53246c7.20007-7.64284 8.44151-12.48612 9.7217-18.99975l-12.18689-.125c2.57083 4.08998 3.31842 10.98969 2.46519 19.12475z" fill="#fff" fill-rule="evenodd"/><path d="m223.94673 38.425681c-3.13084 3.863564-7.10954 7.019918-11.58403 9.189766" fill="none" stroke="#ffffec" stroke-width="2.513386" transform="matrix(.43606293 -.89991617 .89991617 .43606293 -42.931387 303.882765)"/><path d="m12.576994 115.21311c-7.20007 7.64284-8.44151 12.48612-9.7217 18.99975l12.18689.125c-2.57083-4.08998-3.31842-10.98968-2.46519-19.12475z" fill="#fff" fill-rule="evenodd"/><path d="m223.94673 38.425681c-3.13084 3.863564-7.10954 7.019918-11.58403 9.189766" fill="none" stroke="#ffffec" stroke-width="2.513386" transform="matrix(-.43606294 .89991617 -.89991617 -.43606294 144.267482 -36.137195)"/><path d="m88.759084 152.53246c7.20007-7.64284 8.44151-12.48612 9.7217-18.99975l-12.18689-.125c2.57083 4.08998 3.31842 10.98969 2.46519 19.12475z" fill="#fff" fill-rule="evenodd"/><path d="m223.94673 38.425681c-3.13084 3.863564-7.10954 7.019918-11.58403 9.189766" fill="none" stroke="#ffffec" stroke-width="2.513386" transform="matrix(.43606293 -.89991617 .89991617 .43606293 -42.931387 303.882765)"/><path d="m12.576994 115.21311c-7.20007 7.64284-8.44151 12.48612-9.7217 18.99975l12.18689.125c-2.57083-4.08998-3.31842-10.98968-2.46519-19.12475z" fill="#fff" fill-rule="evenodd"/><path d="m223.94673 38.425681c-3.13084 3.863564-7.10954 7.019918-11.58403 9.189766" fill="none" stroke="#ffffec" stroke-width="2.513386" transform="matrix(-.43606294 .89991617 -.89991617 -.43606294 144.267482 -36.137195)"/><path d="m60.345198 90.145626v2.466667q-6.733333 8.966667-8.933334 17.999997-.4 1.56667-.666666 3.16667h-3.133334q1.666667-7.26667 4.766667-12.96667 1.866667-3.399997 4.933334-7.766664h-12.766668v-2.9z" fill="#fff"/><path d="m172.30264 353.23523c7.20007-7.64284 8.44151-12.48612 9.7217-18.99975l-12.18689-.125c2.57083 4.08998 3.31842 10.98968 2.46519 19.12475z" fill="#fff" fill-rule="evenodd"/><path d="m223.94673 38.425681c-3.13084 3.863564-7.10954 7.019918-11.58403 9.189766" fill="none" stroke="#ffffec" stroke-width="2.513386" transform="matrix(.43606293 -.89991617 .89991617 .43606293 40.612172 504.585533)"/><path d="m96.12056 315.91587c-7.20007 7.64284-8.44151 12.48612-9.7217 18.99975l12.18689.125c-2.57083-4.08998-3.31842-10.98968-2.46519-19.12475z" fill="#fff" fill-rule="evenodd"/><path d="m223.94673 38.425681c-3.13084 3.863564-7.10954 7.019918-11.58403 9.189766" fill="none" stroke="#ffffec" stroke-width="2.513386" transform="matrix(-.43606294 .89991617 -.89991617 -.43606294 227.811054 164.565561)"/><path d="m127.78501 363.30247q.26666-8.16666 7.8-8.2 4.03333 0 6.16666 2.66667 1.4 1.83333 1.4 4.26667-.0333 4.4-5 7.13333l-3.33333 1.8q-3.1 1.66667-3.9 3.53334-.26667.6-.36667 1.33333h12.43334v2.9h-15.73334q.23334-4.26667 1.9-6.5 1.43334-1.86667 4.73334-3.73333l3.06666-1.73334q3.16667-1.86667 3.2-4.66667 0-2.4-2-3.7-1.16666-.73333-2.66666-.73333-4.36667 0-4.76667 5.43333 0 .1 0 .2z" fill="#fff"/><path d="m95.573417 69.611445c-7.20006-7.64284-8.4415-12.48612-9.72169-18.99975l12.18688-.125c-2.57083 4.08998-3.31842 10.98968-2.46519 19.12475z" fill="#fff" fill-rule="evenodd"/><path d="m223.94673 38.425681c-3.13084 3.863564-7.10954 7.019918-11.58403 9.189766" fill="none" stroke="#ffffec" stroke-width="2.513386" transform="matrix(-.43606293 -.89991617 -.89991617 .43606293 227.2639 220.96176)"/><path d="m171.7555 32.29209c7.20007 7.642835 8.44151 12.486125 9.7217 18.999745l-12.18689.125c2.57083-4.08997 3.31842-10.98968 2.46519-19.124745z" fill="#fff" fill-rule="evenodd"/><path d="m223.94673 38.425681c-3.13084 3.863564-7.10954 7.019918-11.58403 9.189766" fill="none" stroke="#ffffec" stroke-width="2.513386" transform="matrix(.43606294 .89991617 .89991617 -.43606294 40.065037 -119.05822)"/><path d="m141.69302 6.2718487v2.9000002h-9.83334l-.93333 6.6000001q2-1.433333 4.36666-1.433333 4.00001 0 6.13334 2.9 1.5 2.066667 1.5 4.966667 0 4.300001-2.9 6.700001-2.16667 1.766667-5.2 1.766667-6.53334 0-7.76667-6.266668-.0333-.1-.0667-.3h2.93334q1.1 3.933334 4.83333 3.966667 3.36667 0 4.63334-2.7.53333-1.233333.53333-2.766667 0-3.633333-2.53334-5.033333-1.16666-.633334-2.63333-.633334-2.13333 0-3.63333 1.433334-.33334.366666-.7.766666h-2.7l1.76666-12.8666673z" fill="#fff"/><path d="m11.578661 270.13931c-7.2000692-7.64284-8.4415092-12.48612-9.7216992-18.99975l12.1868892-.125c-2.57083 4.08998-3.31842 10.98968-2.46519 19.12475z" fill="#fff" fill-rule="evenodd"/><path d="m223.94673 38.425681c-3.13084 3.863564-7.10954 7.019918-11.58403 9.189766" fill="none" stroke="#ffffec" stroke-width="2.513386" transform="matrix(-.43606293 -.89991617 -.89991617 .43606293 143.26914 421.48962)"/><path d="m87.760751 232.81995c7.20007 7.64284 8.441511 12.48613 9.721701 18.99975l-12.186891.125c2.57083-4.08997 3.31842-10.98968 2.46519-19.12475z" fill="#fff" fill-rule="evenodd"/><path d="m223.94673 38.425681c-3.13084 3.863564-7.10954 7.019918-11.58403 9.189766" fill="none" stroke="#ffffec" stroke-width="2.513386" transform="matrix(.43606294 .89991617 .89991617 -.43606294 -43.929719 81.46966)"/><path d="m43.504291 285.36315q0-10.3 5.7-12.4 1.3-.46666 2.766667-.46666 3.833334 0 5.666667 3.1.766667 1.33333 1.033333 3.06666h-2.933333q-.6-2.93333-3.033334-3.46666-.466666-.1-.933333-.1-3.7 0-4.833334 4.8-.4 1.83333-.433333 4.16666 1.966667-2.63333 5.433334-2.63333 3.7 0 5.766667 2.76667 1.466666 2 1.466666 4.73333 0 3.96667-2.733333 6.23334-2.1 1.73333-5 1.73333-7.900001-.0667-7.933334-11.53334zm8.066667-1.33333q-2.833334 0-4.166667 2.2-.733333 1.2-.733333 2.76667 0 2.86666 2.033333 4.4 1.2.9 2.766667.9 2.533333 0 3.866667-2.1.833333-1.33334.833333-3.03334 0-3.4-2.366667-4.63333-1-.5-2.233333-.5z" fill="#fff"/><path d="m296.02916 152.36443c-7.20006-7.64284-8.4415-12.48612-9.72169-18.99975l12.18688-.125c-2.57083 4.08998-3.31842 10.98968-2.46519 19.12475z" fill="#fff" fill-rule="evenodd"/><path d="m223.94673 38.425681c-3.13084 3.863564-7.10954 7.019918-11.58403 9.189766" fill="none" stroke="#ffffec" stroke-width="2.513386" transform="matrix(-.43606293 -.89991617 -.89991617 .43606293 427.71965 303.71475)"/><path d="m372.21125 115.04508c7.20007 7.64283 8.44151 12.48612 9.7217 18.99974l-12.18689.125c2.57083-4.08997 3.31842-10.98968 2.46519-19.12474z" fill="#fff" fill-rule="evenodd"/><path d="m223.94673 38.425681c-3.13084 3.863564-7.10954 7.019918-11.58403 9.189766" fill="none" stroke="#ffffec" stroke-width="2.513386" transform="matrix(.43606294 .89991617 .89991617 -.43606294 240.52078 -36.305234)"/><path d="m335.78757 91.735929q-3.8 0-4.4 3.666667-.0667.633333-.1 1.4h-2.93334q.13334-7.000001 6.33334-7.600001.53333-.03333 1.06666-.03333 4.66667 0 6.4 3.133333.80001 1.466667.80001 3.366667-.0333 3.600001-3.30001 4.899998 3.10001 1.06667 3.76667 3.6.23334.9.23334 2.03334 0 4.1-3.13334 6.1-2.03333 1.26666-4.86667 1.26666-6.53333 0-7.63333-6.13333-.1-.73333-.16667-1.5h2.93334q.26666 4.4 3.76666 4.93333.56667.1 1.2.1 3.46667 0 4.53334-2.63333.36666-.96667.36666-2.1-.0667-4.26667-4.9-4.3l-1.23333.0333h-.36667v-2.499997q3.76667-.06667 4.9-1.1.9-.866667.9-2.600001 0-2.833333-2.33333-3.733333-.83333-.3-1.83333-.3z" fill="#fff"/><path d="m212.55233 352.75501c-7.20007-7.64284-8.44151-12.48612-9.7217-18.99975l12.18689-.125c-2.57083 4.08998-3.31842 10.98968-2.46519 19.12475z" fill="#fff" fill-rule="evenodd"/><path d="m223.94673 38.425681c-3.13084 3.863564-7.10954 7.019918-11.58403 9.189766" fill="none" stroke="#ffffec" stroke-width="2.513386" transform="matrix(-.43606293 -.89991617 -.89991617 .43606293 344.24281 504.10532)"/><path d="m288.73442 315.43565c7.20007 7.64284 8.44151 12.48613 9.7217 18.99975l-12.18689.125c2.57083-4.08997 3.31842-10.98968 2.46519-19.12475z" fill="#fff" fill-rule="evenodd"/><path d="m223.94673 38.425681c-3.13084 3.863564-7.10954 7.019918-11.58403 9.189766" fill="none" stroke="#ffffec" stroke-width="2.513386" transform="matrix(.43606294 .89991617 .89991617 -.43606294 157.04395 164.08536)"/><path d="m253.94463 373.07885h-9.96666v-3.1l10.73333-14.86667h2.16667v15.33333h3.5v2.63334h-3.5v5.66666h-2.93334zm0-2.63334v-10.33333l-7.4 10.33333z" fill="#fff"/><path d="m289.63062 69.712521c7.20007-7.64284 8.44151-12.48612 9.7217-18.99975l-12.18689-.125c2.57083 4.08998 3.31842 10.98969 2.46519 19.12475z" fill="#fff" fill-rule="evenodd"/><path d="m223.94673 38.425681c-3.13084 3.863564-7.10954 7.019918-11.58403 9.189766" fill="none" stroke="#ffffec" stroke-width="2.513386" transform="matrix(.43606293 -.89991617 .89991617 .43606293 157.940153 221.062822)"/><path d="m213.44853 32.393171c-7.20007 7.64284-8.44151 12.48612-9.7217 18.99975l12.18689.125c-2.57083-4.08998-3.31842-10.98968-2.46519-19.12475z" fill="#fff" fill-rule="evenodd"/><path d="m223.94673 38.425681c-3.13084 3.863564-7.10954 7.019918-11.58403 9.189766" fill="none" stroke="#ffffec" stroke-width="2.513386" transform="matrix(-.43606294 .89991617 -.89991617 -.43606294 345.139025 -118.957134)"/><path d="m289.63062 69.712521c7.20007-7.64284 8.44151-12.48612 9.7217-18.99975l-12.18689-.125c2.57083 4.08998 3.31842 10.98969 2.46519 19.12475z" fill="#fff" fill-rule="evenodd"/><path d="m223.94673 38.425681c-3.13084 3.863564-7.10954 7.019918-11.58403 9.189766" fill="none" stroke="#ffffec" stroke-width="2.513386" transform="matrix(.43606293 -.89991617 .89991617 .43606293 157.940153 221.062822)"/><path d="m213.44853 32.393171c-7.20007 7.64284-8.44151 12.48612-9.7217 18.99975l12.18689.125c-2.57083-4.08998-3.31842-10.98968-2.46519-19.12475z" fill="#fff" fill-rule="evenodd"/><path d="m223.94673 38.425681c-3.13084 3.863564-7.10954 7.019918-11.58403 9.189766" fill="none" stroke="#ffffec" stroke-width="2.513386" transform="matrix(-.43606294 .89991617 -.89991617 -.43606294 345.139025 -118.957134)"/><path d="m252.92522 14.125688h-5.23333v-2.1q3.4-.433334 4.4-1.2 1-.733334 1.7-3.1000006.0667-.2.13333-.4h1.93333v23.6333356h-2.93333z" fill="#fff"/><path d="m373.27631 270.72165c7.20007-7.64284 8.44151-12.48612 9.7217-18.99975l-12.18689-.125c2.57083 4.08998 3.31842 10.98968 2.46519 19.12475z" fill="#fff" fill-rule="evenodd"/><path d="m223.94673 38.425681c-3.13084 3.863564-7.10954 7.019918-11.58403 9.189766" fill="none" stroke="#ffffec" stroke-width="2.513386" transform="matrix(.43606293 -.89991617 .89991617 .43606293 241.585831 422.071951)"/><path d="m297.09423 233.40229c-7.20007 7.64284-8.44151 12.48612-9.7217 18.99975l12.18689.125c-2.57083-4.08998-3.31842-10.98968-2.46519-19.12475z" fill="#fff" fill-rule="evenodd"/><path d="m223.94673 38.425681c-3.13084 3.863564-7.10954 7.019918-11.58403 9.189766" fill="none" stroke="#ffffec" stroke-width="2.513386" transform="matrix(-.43606294 .89991617 -.89991617 -.43606294 428.784709 82.051976)"/><path d="m340.12534 283.78889q4.03334 1.96667 4.06667 5.90001 0 3.73333-2.86667 5.76666-2.1 1.53334-5.06666 1.53334-4.13334 0-6.36667-2.73334-1.56667-1.93333-1.56667-4.6.0333-3.93333 4.03334-5.86667-2.4-1.5-2.93334-3.1-.26666-.76666-.26666-1.8 0-3.3 2.7-5.06666 1.86666-1.23334 4.4-1.23334 3.86666 0 5.83333 2.53334 1.26667 1.63333 1.26667 3.76666 0 2.26667-1.5 3.63334-.66667.63333-1.73334 1.26666zm-3.86666-8.6q-2.7 0-3.7 1.96667-.4.8-.4 1.76667 0 2.33333 2.03333 3.26666.93333.43334 2.06667.43334 2.66666 0 3.66666-1.9.43334-.8.43334-1.76667 0-2.5-2.16667-3.4-.86667-.36667-1.93333-.36667zm0 9.9q-2.96667 0-4.26667 2.13334-.66667 1.1-.66667 2.5 0 2.73333 2.2 4 1.16667.66667 2.66667.66667 3.03333 0 4.33333-2.16667.66667-1.1.66667-2.5 0-2.73334-2.23333-4-1.2-.63334-2.7-.63334z" fill="#fff"/></svg>