<svg enable-background="new 0 0 291.424 291.77" viewBox="0 0 291.424 291.77" xmlns="http://www.w3.org/2000/svg"><g stroke="#000" stroke-miterlimit="10"><path d="m12.073 142.822h267.144v6.777h-267.144z" fill="#fff" transform="matrix(.7071 -.7071 .7071 .7071 -60.7283 145.8108)"/><path d="m142.257 12.631h6.777v267.161h-6.777z" fill="#fff" transform="matrix(.7071 -.7071 .7071 .7071 -60.7285 145.8111)"/><path d="m188.845 153.215-36.195 36.195c-3.869 3.869-10.141 3.869-14.009 0l-36.195-36.195c-3.869-3.869-3.869-10.141 0-14.009l36.195-36.195c3.869-3.869 10.141-3.869 14.009 0l36.195 36.195c3.869 3.869 3.869 10.141-0 14.009z" fill="#fff"/><path d="m127.468 168.211 18.177-51 18.178 51z" fill="#ff442b"/></g><ellipse cx="240.427" cy="51.629" fill="#4ec3e8" opacity=".8" rx="50.993" ry="51.004" transform="matrix(.7091 -.7051 .7051 .7091 33.5429 184.5558)"/><path d="m248.364 43.704c-4.374-4.384-11.473-4.393-15.858-.019-4.384 4.374-4.393 11.473-.019 15.858 4.365 4.375 11.447 4.394 15.835.042 4.397-4.335 4.446-11.414.111-15.811-.023-.024-.046-.047-.069-.07z" fill="#fff" stroke="#000" stroke-miterlimit="10"/><ellipse cx="51.554" cy="240.78" fill="#4ec3e8" opacity=".8" rx="50.993" ry="51.004" transform="matrix(.7091 -.7051 .7051 .7091 -154.7855 106.4043)"/><path d="m43.612 248.69c4.374 4.384 11.473 4.393 15.858.019 4.384-4.374 4.393-11.473.019-15.858-4.365-4.375-11.447-4.394-15.835-.042-4.397 4.335-4.446 11.414-.111 15.811.023.024.046.047.069.07z" fill="#fff" stroke="#000" stroke-miterlimit="10"/><ellipse cx="50.994" cy="50.994" fill="#159e1f" opacity=".8" rx="50.993" ry="51.004" transform="matrix(.7051 -.7091 .7091 .7051 -21.1223 51.1938)"/><path d="m58.914 43.059c4.384 4.374 4.393 11.473.019 15.858-4.374 4.384-11.473 4.393-15.858.019-4.375-4.365-4.394-11.447-.042-15.835 4.335-4.397 11.414-4.446 15.811-.111.024.023.047.046.07.069z" fill="#fff" stroke="#000" stroke-miterlimit="10"/><ellipse cx="240.373" cy="240.62" fill="#159e1f" opacity=".8" rx="50.993" ry="51.004" transform="matrix(.7051 -.7091 .7091 .7051 -99.7395 241.3889)"/><path d="m232.459 248.567c-4.384-4.374-4.393-11.473-.019-15.858 4.374-4.384 11.473-4.393 15.858-.019 4.375 4.365 4.394 11.447.042 15.835-4.335 4.397-11.414 4.446-15.811.111-.024-.023-.047-.046-.07-.069z" fill="#fff" stroke="#000" stroke-miterlimit="10"/><path d="m88.62718 69.683532c7.20007-7.642839 8.44151-12.486121 9.7217-18.999749l-12.18689-.125c2.57083 4.089977 3.31842 10.989681 2.46519 19.124749z" fill="#fff" fill-rule="evenodd"/><path d="m223.94673 38.425681c-3.13084 3.863564-7.10954 7.019918-11.58403 9.189766" fill="none" stroke="#ffffec" stroke-width="2.513386" transform="matrix(.43606293 -.89991617 .89991617 .43606293 -43.063291 221.033835)"/><path d="m12.44509 32.364176c-7.20007 7.642839-8.44151 12.486121-9.7217 18.999749l12.18689.125c-2.57083-4.089977-3.31842-10.989681-2.46519-19.124749z" fill="#fff" fill-rule="evenodd"/><path d="m223.94673 38.425681c-3.13084 3.863564-7.10954 7.019918-11.58403 9.189766" fill="none" stroke="#ffffec" stroke-width="2.513386" transform="matrix(-.43606294 .89991617 -.89991617 -.43606294 144.135576 -118.986128)"/><path d="m88.62718 69.683532c7.20007-7.642839 8.44151-12.486121 9.7217-18.999749l-12.18689-.125c2.57083 4.089977 3.31842 10.989681 2.46519 19.124749z" fill="#fff" fill-rule="evenodd"/><path d="m223.94673 38.425681c-3.13084 3.863564-7.10954 7.019918-11.58403 9.189766" fill="none" stroke="#ffffec" stroke-width="2.513386" transform="matrix(.43606293 -.89991617 .89991617 .43606293 -43.063291 221.033835)"/><path d="m12.44509 32.364176c-7.20007 7.642839-8.44151 12.486121-9.7217 18.999749l12.18689.125c-2.57083-4.089977-3.31842-10.989681-2.46519-19.124749z" fill="#fff" fill-rule="evenodd"/><path d="m223.94673 38.425681c-3.13084 3.863564-7.10954 7.019918-11.58403 9.189766" fill="none" stroke="#ffffec" stroke-width="2.513386" transform="matrix(-.43606294 .89991617 -.89991617 -.43606294 144.135576 -118.986128)"/><path d="m51.879975 9.8633587q-3.8 0-4.4 3.6666673-.06667.633333-.1 1.4h-2.933334q.133333-7.0000007 6.333334-7.6000008.533333-.033333 1.066667-.033333 4.666667 0 6.4 3.1333331.8 1.466667.8 3.366667-.03333 3.600001-3.3 4.900001 3.1 1.066666 3.766667 3.6.233333.9.233333 2.033334 0 4.1-3.133333 6.1-2.033334 1.266667-4.866667 1.266667-6.533334 0-7.633334-6.133334-.1-.733333-.166667-1.5h2.933334q.266666 4.4 3.766667 4.933334.566666.1 1.2.1 3.466667 0 4.533333-2.633334.366667-.966667.366667-2.1-.06667-4.266667-4.9-4.3l-1.233334.03333h-.366666v-2.5q3.766667-.06667 4.9-1.1.9-.866667.9-2.600001 0-2.833333-2.333333-3.733333-.833334-.3000003-1.833334-.3000003z" fill="#fff"/><path d="m277.82678 259.43511c7.20007-7.64284 8.44151-12.48612 9.7217-18.99975l-12.18689-.125c2.57083 4.08998 3.31842 10.98968 2.46519 19.12475z" fill="#fff" fill-rule="evenodd"/><path d="m223.94673 38.425681c-3.13084 3.863564-7.10954 7.019918-11.58403 9.189766" fill="none" stroke="#ffffec" stroke-width="2.513386" transform="matrix(.43606293 -.89991617 .89991617 .43606293 146.136305 410.785407)"/><path d="m201.64469 222.11575c-7.20007 7.64284-8.44151 12.48612-9.7217 18.99975l12.18689.125c-2.57083-4.08998-3.31842-10.98968-2.46519-19.12475z" fill="#fff" fill-rule="evenodd"/><path d="m223.94673 38.425681c-3.13084 3.863564-7.10954 7.019918-11.58403 9.189766" fill="none" stroke="#ffffec" stroke-width="2.513386" transform="matrix(-.43606294 .89991617 -.89991617 -.43606294 333.335178 70.765431)"/><path d="m242.54247 279.26903h-9.96667v-3.1l10.73334-14.86667h2.16667v15.33334h3.5v2.63333h-3.5v5.66667h-2.93334zm0-2.63333v-10.33334l-7.4 10.33334z" fill="#fff"/><path d="m201.2554 70.183883c-7.20006-7.64284-8.4415-12.48612-9.72169-18.99975l12.18688-.125c-2.57083 4.08998-3.31842 10.98968-2.46519 19.12475z" fill="#fff" fill-rule="evenodd"/><path d="m223.94673 38.425681c-3.13084 3.863564-7.10954 7.019918-11.58403 9.189766" fill="none" stroke="#ffffec" stroke-width="2.513386" transform="matrix(-.43606293 -.89991617 -.89991617 .43606293 332.94589 221.53419)"/><path d="m277.43749 32.864523c7.20007 7.64284 8.44151 12.48613 9.7217 18.99975l-12.18689.125c2.57083-4.08997 3.31842-10.98968 2.46519-19.12475z" fill="#fff" fill-rule="evenodd"/><path d="m223.94673 38.425681c-3.13084 3.863564-7.10954 7.019918-11.58403 9.189766" fill="none" stroke="#ffffec" stroke-width="2.513386" transform="matrix(.43606294 .89991617 .89991617 -.43606294 145.74702 -118.48578)"/><path d="m241.0804 13.716487h-5.23333v-2.1q3.4-.433333 4.4-1.2 1-.7333334 1.7-3.1000003.0667-.2.13333-.4h1.93333v23.6333353h-2.93333z" fill="#fff"/><path d="m12.024441 259.21182c-7.20007-7.64284-8.44151-12.48612-9.7217-18.99975l12.18689-.125c-2.57083 4.08998-3.31842 10.98968-2.46519 19.12475z" fill="#fff" fill-rule="evenodd"/><path d="m223.94673 38.425681c-3.13084 3.863564-7.10954 7.019918-11.58403 9.189766" fill="none" stroke="#ffffec" stroke-width="2.513386" transform="matrix(-.43606293 -.89991617 -.89991617 .43606293 143.71492 410.56213)"/><path d="m88.206531 221.89246c7.20007 7.64284 8.44151 12.48613 9.7217 18.99975l-12.18689.125c2.57083-4.08997 3.31842-10.98968 2.46519-19.12475z" fill="#fff" fill-rule="evenodd"/><path d="m223.94673 38.425681c-3.13084 3.863564-7.10954 7.019918-11.58403 9.189766" fill="none" stroke="#ffffec" stroke-width="2.513386" transform="matrix(.43606294 .89991617 .89991617 -.43606294 -43.483939 70.542171)"/><path d="m44.183421 269.769q.266667-8.16667 7.800001-8.2 4.033333 0 6.166667 2.66666 1.4 1.83334 1.4 4.26667-.03333 4.4-5.000001 7.13333l-3.333333 1.8q-3.1 1.66667-3.9 3.53334-.266667.6-.366667 1.33333h12.433334v2.9h-15.733334q.233333-4.26667 1.9-6.5 1.433333-1.86667 4.733333-3.73333l3.066667-1.73334q3.166667-1.86666 3.200001-4.66666 0-2.4-2.000001-3.7-1.166666-.73334-2.666666-.73334-4.366667 0-4.766667 5.43334 0 .1 0 .2z" fill="#fff"/></svg>