<svg enable-background="new 0 0 387.573 324.704" viewBox="0 0 387.573 324.704" xmlns="http://www.w3.org/2000/svg"><path d="m94.814 51h6.402v188.979h-6.402z" fill="#fff" stroke="#000" stroke-miterlimit="10"/><path d="m286.814 51h6.402v188.979h-6.402z" fill="#fff" stroke="#000" stroke-miterlimit="10"/><ellipse cx="98.019" cy="50.994" fill="#159e1f" opacity=".8" rx="50.993" ry="51.004" transform="matrix(.7071 -.7071 .7071 .7071 -7.3479 84.2497)"/><ellipse cx="98.02" cy="239.972" fill="#4ec3e8" opacity=".8" rx="50.993" ry="51.004" transform="matrix(.7071 -.7071 .7071 .7071 -140.9801 139.6049)"/><path d="m90.077 58.918c-4.373-4.385-4.363-11.485.022-15.858s11.485-4.363 15.858.022c4.364 4.376 4.364 11.459 0 15.835-4.347 4.385-11.426 4.416-15.811.069-.023-.022-.046-.045-.069-.068z" fill="#fff" stroke="#000" stroke-miterlimit="10"/><path d="m90.077 247.898c-4.373-4.385-4.363-11.485.022-15.858s11.485-4.363 15.858.022c4.364 4.376 4.364 11.459 0 15.835-4.347 4.385-11.426 4.416-15.811.069-.023-.022-.046-.045-.069-.068z" fill="#fff" stroke="#000" stroke-miterlimit="10"/><ellipse cx="290.019" cy="50.994" fill="#4ec3e8" opacity=".8" rx="50.993" ry="51.004" transform="matrix(.7071 -.7071 .7071 .7071 48.8925 220.0187)"/><ellipse cx="290.019" cy="239.971" fill="#159e1f" opacity=".8" rx="50.993" ry="51.004" transform="matrix(.7071 -.7071 .7071 .7071 -84.7391 275.3736)"/><g stroke="#000" stroke-miterlimit="10"><path d="m282.077 58.918c-4.373-4.385-4.363-11.485.022-15.858s11.485-4.363 15.858.022c4.364 4.376 4.364 11.459 0 15.835-4.347 4.385-11.426 4.416-15.811.069-.023-.022-.046-.045-.069-.068z" fill="#fff"/><path d="m282.077 247.898c-4.373-4.385-4.363-11.485.022-15.858s11.485-4.363 15.858.022c4.364 4.376 4.364 11.459 0 15.835-4.347 4.385-11.426 4.416-15.811.069-.023-.022-.046-.045-.069-.068z" fill="#fff"/><path d="m193.786 324.203h59.055c-12.667-25.332-28.333-26-28.333-26h-22.997l5.333-124.667s143-6.167 180-7.333c-17-42.167-70.667-43.833-70.667-43.833h-104.836v-37.333s.663-31.681-15.167-31.5h-4.776c-15.811.236-15.167 31.5-15.167 31.5v37.333h-104.833s-53.667 1.667-70.667 43.833c37 1.167 180 7.333 180 7.333l5.333 124.667h-23s-15.667.669-28.333 26z" fill="#4ec3e8"/><path d="m51.153 168.108c38.73 1.558 86.711 3.593 112.028 4.675l.24-11.262-112-5s-.171 7.141-.268 11.587z" fill="#159e1f"/><path d="m336.334 168.215c-38.73 1.558-86.711 3.593-112.028 4.675l-.24-11.262 112-5s.171 7.141.268 11.587z" fill="#159e1f"/><path d="m154.731 324.204v-13.016h78.11v13z" fill="#159e1f"/><path d="m196.228 324.022h-4.833l-2-25.667h8.833z" fill="#159e1f"/></g><path d="m135.583 69.879845c7.20007-7.642842 8.44151-12.486122 9.7217-18.99975l-12.18689-.125c2.57083 4.089978 3.31842 10.989678 2.46519 19.12475z" fill="#fff" fill-rule="evenodd"/><path d="m223.94673 38.425681c-3.13084 3.863564-7.10954 7.019918-11.58403 9.189766" fill="none" stroke="#ffffec" stroke-width="2.513386" transform="matrix(.43606293 -.89991617 .89991617 .43606293 3.892537 221.230149)"/><path d="m59.400901 32.560488c-7.20007 7.642839-8.44151 12.486121-9.7217 18.999749l12.18689.125c-2.57083-4.089977-3.31842-10.989681-2.46519-19.124749z" fill="#fff" fill-rule="evenodd"/><path d="m223.94673 38.425681c-3.13084 3.863564-7.10954 7.019918-11.58403 9.189766" fill="none" stroke="#ffffec" stroke-width="2.513386" transform="matrix(-.43606294 .89991617 -.89991617 -.43606294 191.091405 -118.789833)"/><text fill="#fff" font-family="sans-serif" font-size="33.3333" letter-spacing="0" word-spacing="0" x="85.457809" y="31.126339"><tspan fill="#fff" font-family="FreeSans" font-size="33.3333" x="85.457809" y="31.126339">3</tspan></text><path d="m135.583 69.879845c7.20007-7.642842 8.44151-12.486122 9.7217-18.99975l-12.18689-.125c2.57083 4.089978 3.31842 10.989678 2.46519 19.12475z" fill="#fff" fill-rule="evenodd"/><path d="m223.94673 38.425681c-3.13084 3.863564-7.10954 7.019918-11.58403 9.189766" fill="none" stroke="#ffffec" stroke-width="2.513386" transform="matrix(.43606293 -.89991617 .89991617 .43606293 3.892537 221.230149)"/><path d="m59.400901 32.560488c-7.20007 7.642839-8.44151 12.486121-9.7217 18.999749l12.18689.125c-2.57083-4.089977-3.31842-10.989681-2.46519-19.124749z" fill="#fff" fill-rule="evenodd"/><path d="m223.94673 38.425681c-3.13084 3.863564-7.10954 7.019918-11.58403 9.189766" fill="none" stroke="#ffffec" stroke-width="2.513386" transform="matrix(-.43606294 .89991617 -.89991617 -.43606294 191.091405 -118.789833)"/><path d="m327.70124 258.65854c7.20007-7.64284 8.44151-12.48612 9.7217-18.99975l-12.18689-.125c2.57083 4.08998 3.31842 10.98968 2.46519 19.12475z" fill="#fff" fill-rule="evenodd"/><path d="m223.94673 38.425681c-3.13084 3.863564-7.10954 7.019918-11.58403 9.189766" fill="none" stroke="#ffffec" stroke-width="2.513386" transform="matrix(.43606293 -.89991617 .89991617 .43606293 196.010778 410.008835)"/><path d="m251.51916 221.33918c-7.20007 7.64284-8.44151 12.48612-9.7217 18.99975l12.18689.125c-2.57083-4.08998-3.31842-10.98968-2.46519-19.12475z" fill="#fff" fill-rule="evenodd"/><path d="m223.94673 38.425681c-3.13084 3.863564-7.10954 7.019918-11.58403 9.189766" fill="none" stroke="#ffffec" stroke-width="2.513386" transform="matrix(-.43606294 .89991617 -.89991617 -.43606294 383.209645 69.988842)"/><path d="m292.41697 278.49242h-9.96667v-3.1l10.73334-14.86667h2.16666v15.33334h3.5v2.63333h-3.5v5.66667h-2.93333zm0-2.63333v-10.33334l-7.4 10.33334z" fill="#fff"/><path d="m250.73168 69.527185c-7.20006-7.642842-8.4415-12.486122-9.72169-18.99975l12.18688-.125c-2.57083 4.089978-3.31842 10.989678-2.46519 19.12475z" fill="#fff" fill-rule="evenodd"/><path d="m223.94673 38.425681c-3.13084 3.863564-7.10954 7.019918-11.58403 9.189766" fill="none" stroke="#ffffec" stroke-width="2.513386" transform="matrix(-.43606293 -.89991617 -.89991617 .43606293 382.42217 220.8775)"/><path d="m326.91377 32.207825c7.20007 7.64284 8.44151 12.48613 9.7217 18.99975l-12.18689.124998c2.57083-4.089968 3.31842-10.989678 2.46519-19.124748z" fill="#fff" fill-rule="evenodd"/><path d="m223.94673 38.425681c-3.13084 3.863564-7.10954 7.019918-11.58403 9.189766" fill="none" stroke="#ffffec" stroke-width="2.513386" transform="matrix(.43606294 .89991617 .89991617 -.43606294 195.2233 -119.14247)"/><path d="m290.5567 13.059791h-5.23333v-2.1q3.4-.433334 4.4-1.2000003 1-.7333334 1.7-3.1000003.0667-.2.13333-.4h1.93334v23.6333356h-2.93334z" fill="#fff"/><path d="m58.693545 258.21116c-7.20007-7.64284-8.44151-12.48612-9.7217-18.99975l12.18689-.125c-2.57083 4.08998-3.31842 10.98968-2.46519 19.12475z" fill="#fff" fill-rule="evenodd"/><path d="m223.94673 38.425681c-3.13084 3.863564-7.10954 7.019918-11.58403 9.189766" fill="none" stroke="#ffffec" stroke-width="2.513386" transform="matrix(-.43606293 -.89991617 -.89991617 .43606293 190.38403 409.56147)"/><path d="m134.87564 220.8918c7.20007 7.64284 8.44151 12.48613 9.7217 18.99975l-12.18689.125c2.57083-4.08997 3.31842-10.98968 2.46519-19.12475z" fill="#fff" fill-rule="evenodd"/><path d="m223.94673 38.425681c-3.13084 3.863564-7.10954 7.019918-11.58403 9.189766" fill="none" stroke="#ffffec" stroke-width="2.513386" transform="matrix(.43606294 .89991617 .89991617 -.43606294 3.185165 69.541509)"/><path d="m90.852526 268.7683q.266667-8.16667 7.800001-8.20001 4.033333 0 6.166663 2.66667 1.4 1.83333 1.4 4.26667-.0333 4.4-5 7.13333l-3.33333 1.8q-3.1 1.66667-3.9 3.53334-.266667.6-.366667 1.33333h12.433337v2.9h-15.733337q.233333-4.26667 1.9-6.5 1.433334-1.86667 4.733334-3.73333l3.066663-1.73334q3.16667-1.86666 3.2-4.66666 0-2.40001-2-3.70001-1.16666-.73333-2.666663-.73333-4.366667 0-4.766667 5.43334 0 .1 0 .2z" fill="#fff"/></svg>