<svg enable-background="new 0 0 433.662 366.158" viewBox="0 0 433.662 366.158" xmlns="http://www.w3.org/2000/svg"><path d="m119.349 51.786h194.965v6.11h-194.965z" fill="#fff" stroke="#000" stroke-miterlimit="10"/><path d="m214.357 174.37h6.12v104.473h-6.12z" fill="#fff" stroke="#000" stroke-miterlimit="10"/><path d="m255.339 349.285c-18.851 20.925-51.095 22.606-72.02 3.755s-22.606-51.095-3.755-72.02 51.095-22.606 72.02-3.755c1.316 1.186 2.57 2.439 3.755 3.755 17.471 19.401 17.471 48.864 0 68.265z" fill="#159e1f" opacity=".8"/><path d="m227.402 211.885c117.211 5.687 205.717 76.149 205.717 76.149s-.8-20.38-1.595-33.809-4.253-18.01-4.253-18.01-94.221-100-101.264-106.956-7.575-10.585-25.382-10.585c-66.712 0-57.808-63.51-57.808-71.251s-3.522-10.98-4.917-12.639-3.721-7.267-8.505-21.012c-4.16-11.95-10.727-13.152-12.372-13.262v-.009s-.068 0-.193 0-.193 0-.193 0v.009c-1.645.11-8.213 1.311-12.372 13.262-4.784 13.745-7.11 19.353-8.505 21.012s-4.917 4.9-4.917 12.639 8.9 71.251-57.808 71.251c-17.808 0-18.339 3.634-25.382 10.585s-101.264 106.956-101.264 106.956-3.455 4.582-4.253 18.01-1.595 33.809-1.595 33.809 88.506-70.461 205.717-76.149z" fill="#4ec3e8" stroke="#000" stroke-miterlimit="10"/><ellipse cx="114.844" cy="80.559" fill="#159e1f" opacity=".8" rx="51.004" ry="50.993" transform="matrix(.7071 -.7071 .7071 .7071 -23.3263 104.807)"/><ellipse cx="318.822" cy="80.559" fill="#159e1f" opacity=".8" rx="51.004" ry="50.993" transform="matrix(.7071 -.7071 .7071 .7071 36.4228 249.0463)"/><path d="m299.525 223.521c50.117 13.578 90.1 35.681 112.8 50.161l-.235-20.146-92.154-61.557z" fill="#159e1f" stroke="#000" stroke-miterlimit="10"/><path d="m134.187 223.521c-50.117 13.578-90.1 35.681-112.8 50.161l.676-20.44 91.713-61.262z" fill="#159e1f" stroke="#000" stroke-miterlimit="10"/><path d="m255.339 319.285c-18.851 20.925-51.095 22.606-72.02 3.755s-22.606-51.095-3.755-72.02 51.095-22.606 72.02-3.755c1.316 1.186 2.57 2.439 3.755 3.755 17.471 19.401 17.471 48.864 0 68.265z" fill="#4ec3e8" opacity=".8"/><ellipse cx="114.843" cy="54.559" fill="#4ec3e8" opacity=".8" rx="51.004" ry="50.993" transform="matrix(.7071 -.7071 .7071 .7071 -4.9409 97.1908)"/><ellipse cx="318.822" cy="54.559" fill="#4ec3e8" opacity=".8" rx="51.004" ry="50.993" transform="matrix(.7071 -.7071 .7071 .7071 54.8082 241.4301)"/><g fill="#fff"><path d="m225.363 293.1c-4.385 4.373-11.485 4.363-15.858-.022s-4.363-11.485.022-15.858c4.376-4.364 11.459-4.364 15.835 0 4.385 4.347 4.416 11.426.069 15.811-.022.023-.045.046-.068.069z" stroke="#000" stroke-miterlimit="10"/><path d="m122.761 62.507c-4.385 4.373-11.485 4.363-15.858-.022s-4.363-11.485.022-15.858c4.376-4.364 11.459-4.364 15.835 0 4.385 4.347 4.416 11.426.069 15.811-.022.023-.045.046-.068.069z" stroke="#000" stroke-miterlimit="10"/><path d="m326.739 62.507c-4.385 4.373-11.485 4.363-15.858-.022s-4.363-11.485.022-15.858c4.376-4.364 11.459-4.364 15.835 0 4.385 4.347 4.416 11.426.069 15.811-.022.023-.045.046-.068.069z" stroke="#000" stroke-miterlimit="10"/><path d="m277.21064 93.349123c.31363 10.513587 2.86489 14.823527 6.57185 20.344067l8.72081-8.54371c-4.71801-1.07604-10.13476-5.43373-15.29266-11.800357z" fill-rule="evenodd"/><path d="m334.3831 119.21784c10.51357-.31363 14.82351-2.8649 20.34406-6.57187l-8.54372-8.7208c-1.07604 4.71801-5.43373 10.13477-11.80034 15.29267z" fill-rule="evenodd"/></g><path d="m223.94673 38.425681c-3.13084 3.863564-7.10954 7.019918-11.58403 9.189766" fill="none" stroke="#ffffec" stroke-width="2.513386" transform="matrix(.9463049 -.32855798 .32855798 .9463049 133.89878 133.14335)"/><path d="m223.94673 38.425681c-3.13084 3.863564-7.10954 7.019918-11.58403 9.189766" fill="none" stroke="#ffffec" stroke-width="2.513386" transform="matrix(.32855797 .9463049 -.9463049 .32855797 263.28513 -107.13521)"/><path d="m317.4739 111.30368h-5.24234v-2.10361q3.40585-.43408 4.40757-1.20207 1.00172-.73459 1.70293-3.10533.0668-.20034.13356-.40069h1.93666v23.67399h-2.93838z" fill="#fff"/><path d="m177.83817 303.45391c-7.20006-7.64284-8.4415-12.48612-9.72169-18.99975l12.18688-.125c-2.57083 4.08998-3.31842 10.98968-2.46519 19.12475z" fill="#fff" fill-rule="evenodd"/><path d="m223.94673 38.425681c-3.13084 3.863564-7.10954 7.019918-11.58403 9.189766" fill="none" stroke="#ffffec" stroke-width="2.513386" transform="matrix(-.43606293 -.89991617 -.89991617 .43606293 309.52866 454.80422)"/><path d="m254.02027 266.13455c7.20007 7.64284 8.44151 12.48613 9.7217 18.99975l-12.18689.125c2.57083-4.08997 3.31842-10.98968 2.46519-19.12475z" fill="#fff" fill-rule="evenodd"/><path d="m223.94673 38.425681c-3.13084 3.863564-7.10954 7.019918-11.58403 9.189766" fill="none" stroke="#ffffec" stroke-width="2.513386" transform="matrix(.43606294 .89991617 .89991617 -.43606294 122.32979 114.78426)"/><path d="m219.23051 323.77773h-9.96667v-3.1l10.73333-14.86667h2.16667v15.33334h3.5v2.63333h-3.5v5.66667h-2.93333zm0-2.63333v-10.33334l-7.4 10.33334z" fill="#fff"/><path d="m279.91318 73.229569c-7.20006-7.642841-8.4415-12.486121-9.72169-18.999751l12.18688-.125c-2.57083 4.08998-3.31842 10.98968-2.46519 19.124751z" fill="#fff" fill-rule="evenodd"/><path d="m223.94673 38.425681c-3.13084 3.863564-7.10954 7.019918-11.58403 9.189766" fill="none" stroke="#ffffec" stroke-width="2.513386" transform="matrix(-.43606293 -.89991617 -.89991617 .43606293 411.60367 224.57988)"/><path d="m356.09527 35.910208c7.20007 7.64284 8.44151 12.48613 9.7217 18.99975l-12.18689.125c2.57083-4.08997 3.31842-10.98968 2.46519-19.12475z" fill="#fff" fill-rule="evenodd"/><path d="m223.94673 38.425681c-3.13084 3.863564-7.10954 7.019918-11.58403 9.189766" fill="none" stroke="#ffffec" stroke-width="2.513386" transform="matrix(.43606294 .89991617 .89991617 -.43606294 224.4048 -115.44009)"/><path d="m311.53404 18.16217q.26666-8.166667 7.8-8.2000004 4.03333 0 6.16667 2.6666664 1.4 1.833334 1.4 4.266667-.0333 4.400001-5.00001 7.133334l-3.33333 1.800001q-3.1 1.666666-3.9 3.533333-.26667.6-.36667 1.333334h12.43334v2.9h-15.73334q.23334-4.266667 1.9-6.500001 1.43334-1.866667 4.73334-3.733333l3.06666-1.733334q3.16667-1.866667 3.20001-4.666667 0-2.4-2.00001-3.7-1.16666-.733334-2.66666-.733334-4.36667 0-4.76667 5.433334 0 .1 0 .2z" fill="#fff"/><path d="m75.580517 72.955297c-7.20006-7.642841-8.4415-12.486121-9.72169-18.999751l12.18688-.125c-2.57083 4.08998-3.31842 10.98968-2.46519 19.124751z" fill="#fff" fill-rule="evenodd"/><path d="m223.94673 38.425681c-3.13084 3.863564-7.10954 7.019918-11.58403 9.189766" fill="none" stroke="#ffffec" stroke-width="2.513386" transform="matrix(-.43606293 -.89991617 -.89991617 .43606293 207.271 224.30561)"/><path d="m151.7626 35.635936c7.20007 7.64284 8.44151 12.48613 9.7217 18.99975l-12.18689.125c2.57083-4.08997 3.31842-10.98968 2.46519-19.12475z" fill="#fff" fill-rule="evenodd"/><path d="m223.94673 38.425681c-3.13084 3.863564-7.10954 7.019918-11.58403 9.189766" fill="none" stroke="#ffffec" stroke-width="2.513386" transform="matrix(.43606294 .89991617 .89991617 -.43606294 20.072137 -115.71436)"/><path d="m106.96803 22.554564q0-10.3 5.7-12.400001 1.3-.4666663 2.76667-.4666663 3.83333 0 5.66667 3.1000003.76666 1.333333 1.03333 3.066667h-2.93333q-.6-2.933334-3.03334-3.466667-.46666-.1-.93333-.1-3.7 0-4.83333 4.8-.4 1.833334-.43334 4.166667 1.96667-2.633333 5.43334-2.633333 3.7 0 5.76666 2.766667 1.46667 2 1.46667 4.733333 0 3.966667-2.73333 6.233334-2.1 1.733334-5 1.733334-7.9-.06667-7.93334-11.533335zm8.06667-1.333333q-2.83333 0-4.16667 2.2-.73333 1.2-.73333 2.766667 0 2.866667 2.03333 4.4 1.2.9 2.76667.9 2.53333 0 3.86667-2.1.83333-1.333333.83333-3.033333 0-3.400001-2.36667-4.633334-1-.5-2.23333-.5z" fill="#fff"/><text x="-141.42136" y="315.24631"><tspan x="-141.42136" y="350.63693"/></text><path d="m73.46064 93.349123c.31363 10.513587 2.86489 14.823527 6.57185 20.344067l8.72081-8.54371c-4.71801-1.07604-10.13476-5.43373-15.29266-11.800357z" fill="#fff" fill-rule="evenodd"/><path d="m130.6331 119.21784c10.51357-.31363 14.82351-2.8649 20.34406-6.57187l-8.54372-8.7208c-1.07604 4.71801-5.43373 10.13477-11.80034 15.29267z" fill="#fff" fill-rule="evenodd"/><path d="m223.94673 38.425681c-3.13084 3.863564-7.10954 7.019918-11.58403 9.189766" fill="none" stroke="#ffffec" stroke-width="2.513386" transform="matrix(.9463049 -.32855798 .32855798 .9463049 -69.85122 133.14335)"/><path d="m223.94673 38.425681c-3.13084 3.863564-7.10954 7.019918-11.58403 9.189766" fill="none" stroke="#ffffec" stroke-width="2.513386" transform="matrix(.32855797 .9463049 -.9463049 .32855797 59.53513 -107.13521)"/><path d="m120.96967 104.49198v2.90499h-9.85025l-.93494 6.61135q2.00344-1.4358 4.37418-1.4358 4.00688 0 6.14388 2.90499 1.50258 2.07023 1.50258 4.97521 0 4.3074-2.90499 6.71153-2.17039 1.76971-5.20894 1.76971-6.54457 0-7.78003-6.27745-.0334-.10017-.0668-.30052h2.93838q1.10189 3.9401 4.84165 3.97349 3.37246 0 4.6413-2.70464.53425-1.23546.53425-2.77143 0-3.63958-2.53769-5.04199-1.16867-.63442-2.63786-.63442-2.13701 0-3.63959 1.4358-.3339.36729-.7012.76798h-2.70465l1.76971-12.8888z" fill="#fff"/><path d="m176.05471 328.04361c.31363 10.51359 2.86489 14.82353 6.57185 20.34407l8.72081-8.54371c-4.71801-1.07604-10.13476-5.43373-15.29266-11.80036z" fill="#fff" fill-rule="evenodd"/><path d="m233.22717 353.91233c10.51357-.31363 14.82351-2.8649 20.34406-6.57187l-8.54372-8.7208c-1.07604 4.71801-5.43373 10.13477-11.80034 15.29267z" fill="#fff" fill-rule="evenodd"/><path d="m223.94673 38.425681c-3.13084 3.863564-7.10954 7.019918-11.58403 9.189766" fill="none" stroke="#ffffec" stroke-width="2.513386" transform="matrix(.9463049 -.32855798 .32855798 .9463049 32.742853 367.83784)"/><path d="m223.94673 38.425681c-3.13084 3.863564-7.10954 7.019918-11.58403 9.189766" fill="none" stroke="#ffffec" stroke-width="2.513386" transform="matrix(.32855797 .9463049 -.9463049 .32855797 162.1292 127.55928)"/><path d="m216.68527 341.75754q-3.80654 0-4.40757 3.67297-.0668.63442-.10017 1.40241h-2.93838q.13356-7.01204 6.34422-7.61307.53426-.0334 1.06851-.0334 4.67469 0 6.41101 3.13873.80137 1.46919.80137 3.37246-.0334 3.60619-3.30568 4.90843 3.10534 1.0685 3.77315 3.60619.23374.90155.23374 2.03683 0 4.10705-3.13873 6.11049-2.03683 1.26885-4.87504 1.26885-6.54457 0-7.64646-6.14389-.10017-.73459-.16695-1.50258h2.93838q.26712 4.40757 3.77314 4.94182.56764.10018 1.20207.10018 3.47263 0 4.54113-2.63787.3673-.96833.3673-2.10361-.0668-4.27401-4.90843-4.3074l-1.23546.0334h-.3673v-2.5043q3.77315-.0668 4.90843-1.10189.90155-.86816.90155-2.60447 0-2.83821-2.33735-3.73976-.83476-.30051-1.83648-.30051z" fill="#fff"/></svg>